<?xml version="1.0" encoding="utf-8"?>
<!-- Generator: Adobe Illustrator 16.0.0, SVG Export Plug-In . SVG Version: 6.00 Build 0)  -->
<!DOCTYPE svg PUBLIC "-//W3C//DTD SVG 1.1//EN" "http://www.w3.org/Graphics/SVG/1.1/DTD/svg11.dtd">
<svg version="1.1" id="Layer_1" xmlns="http://www.w3.org/2000/svg" xmlns:xlink="http://www.w3.org/1999/xlink" x="0px" y="0px"
	 width="500px" height="500px" viewBox="0 0 500 500" enable-background="new 0 0 500 500" xml:space="preserve">
<g>
	<path fill="#0854C7" d="M192.703,159.266c0,18.466-14.972,33.437-33.437,33.437H55.437C36.971,192.703,22,177.732,22,159.266
		V55.437C22,36.971,36.971,22,55.437,22h103.83c18.464,0,33.437,14.971,33.437,33.437V159.266z"/>
	<path fill="#0854C7" d="M192.703,344.392c0,18.469-14.972,33.438-33.437,33.438H55.437C36.971,377.829,22,362.86,22,344.392
		V240.566c0-18.469,14.971-33.439,33.437-33.439h103.83c18.464,0,33.437,14.971,33.437,33.439V344.392z"/>
	<path fill="#ADADAD" d="M474,440.563C474,459.029,459.025,474,440.563,474H242.73c-18.47,0-35.604-14.972-35.604-33.437V242.729
		c0-18.469,17.133-35.602,35.604-35.602h197.833c18.462,0,33.437,17.133,33.437,35.602V440.563z"/>
</g>
</svg>
